<svg height="400pt" viewBox="-48 0 511 511.856" width="400pt" xmlns="http://www.w3.org/2000/svg"><path d="m184.429688 368c-101.464844 0-184-82.535156-184-184s82.535156-184 184-184c101.460937 0 184 82.535156 184 184s-82.539063 184-184 184zm0-352c-92.632813 0-168 75.367188-168 168s75.367187 168 168 168c92.628906 0 168-75.367188 168-168s-75.371094-168-168-168zm0 0"/><path d="m184.429688 344c-88.226563 0-160-71.777344-160-160s71.773437-160 160-160c88.222656 0 160 71.777344 160 160s-71.777344 160-160 160zm0-304c-79.402344 0-144 64.601562-144 144s64.597656 144 144 144c79.398437 0 144-64.601562 144-144s-64.601563-144-144-144zm0 0"/><path d="m304.429688 192c-4.425782 0-8-3.574219-8-8 0-61.761719-50.242188-112-112-112-4.425782 0-8-3.574219-8-8s3.574218-8 8-8c70.574218 0 128 57.425781 128 128 0 4.425781-3.578126 8-8 8zm0 0"/><path d="m384.410156 215.992188c-4.421875 0-8-3.578126-8-8 0-4.425782 3.578125-8 8-8 8.824219 0 16-7.175782 16-16 0-8.824219-7.175781-16-16-16-4.421875 0-8-3.578126-8-8 0-4.425782 3.578125-8 8-8 17.648438 0 32 14.351562 32 32 0 17.648437-14.351562 32-32 32zm0 0"/><path d="m384.410156 215.992188h-25.605468c-4.425782 0-8-3.578126-8-8 0-4.425782 3.574218-8 8-8h25.605468c4.425782 0 8 3.574218 8 8 0 4.421874-3.574218 8-8 8zm0 0"/><path d="m384.410156 167.992188h-25.605468c-4.425782 0-8-3.578126-8-8 0-4.425782 3.574218-8 8-8h25.605468c4.425782 0 8 3.574218 8 8 0 4.421874-3.574218 8-8 8zm0 0"/><path d="m384.4375 264.023438c-4.425781 0-8-3.574219-8-8v-56.015626c0-4.421874 3.574219-8 8-8 4.421875 0 8 3.578126 8 8v56.015626c0 4.417968-3.578125 8-8 8zm0 0"/><path d="m384.4375 359.984375c-4.425781 0-8-3.578125-8-8v-56.015625c0-4.425781 3.574219-8 8-8 4.421875 0 8 3.574219 8 8v56.015625c0 4.421875-3.578125 8-8 8zm0 0"/><path d="m384.4375 463.910156c-4.425781 0-8-3.574218-8-8v-56.015625c0-4.421875 3.574219-8 8-8 4.421875 0 8 3.578125 8 8v56.015625c0 4.425782-3.578125 8-8 8zm0 0"/><path d="m400.429688 272.023438c-4.425782 0-8-3.574219-8-8 0-4.414063-3.585938-8-8-8-4.417969 0-8 3.585937-8 8 0 4.425781-3.578126 8-8 8-4.425782 0-8-3.574219-8-8 0-13.230469 10.765624-24 24-24 13.230468 0 24 10.769531 24 24 0 4.417968-3.578126 8-8 8zm0 0"/><path d="m384.429688 311.976562c-13.234376 0-24-10.769531-24-24 0-4.425781 3.574218-8 8-8 4.421874 0 8 3.574219 8 8 0 4.414063 3.582031 8 8 8 4.414062 0 8-3.585937 8-8 0-4.425781 3.574218-8 8-8 4.421874 0 8 3.574219 8 8 0 13.230469-10.769532 24-24 24zm0 0"/><path d="m368.429688 295.976562c-4.425782 0-8-3.578124-8-8v-23.953124c0-4.421876 3.574218-8 8-8 4.421874 0 8 3.578124 8 8v23.953124c0 4.421876-3.578126 8-8 8zm0 0"/><path d="m400.429688 295.976562c-4.425782 0-8-3.578124-8-8v-23.953124c0-4.421876 3.574218-8 8-8 4.421874 0 8 3.578124 8 8v23.953124c0 4.421876-3.578126 8-8 8zm0 0"/><path d="m384.4375 367.992188c-4.425781 0-8-3.578126-8-8v-56.015626c0-4.425781 3.574219-8 8-8 4.421875 0 8 3.574219 8 8v56.015626c0 4.421874-3.578125 8-8 8zm0 0"/><path d="m400.429688 375.992188c-4.425782 0-8-3.578126-8-8 0-4.417969-3.585938-8-8-8-4.417969 0-8 3.582031-8 8 0 4.421874-3.578126 8-8 8-4.425782 0-8-3.578126-8-8 0-13.230469 10.765624-24 24-24 13.230468 0 24 10.769531 24 24 0 4.421874-3.578126 8-8 8zm0 0"/><path d="m384.429688 415.902344c-13.234376 0-24-10.765625-24-24 0-4.421875 3.574218-8 8-8 4.421874 0 8 3.578125 8 8 0 4.417968 3.582031 8 8 8 4.414062 0 8-3.582032 8-8 0-4.421875 3.574218-8 8-8 4.421874 0 8 3.578125 8 8 0 13.234375-10.769532 24-24 24zm0 0"/><path d="m368.429688 399.902344c-4.425782 0-8-3.574219-8-8v-23.910156c0-4.425782 3.574218-8 8-8 4.421874 0 8 3.574218 8 8v23.910156c0 4.425781-3.578126 8-8 8zm0 0"/><path d="m400.429688 399.902344c-4.425782 0-8-3.574219-8-8v-23.910156c0-4.425782 3.574218-8 8-8 4.421874 0 8 3.574218 8 8v23.910156c0 4.425781-3.578126 8-8 8zm0 0"/><path d="m400.429688 471.902344c-4.425782 0-8-3.574219-8-8 0-4.414063-3.585938-8-8-8-4.417969 0-8 3.585937-8 8 0 4.425781-3.578126 8-8 8-4.425782 0-8-3.574219-8-8 0-13.230469 10.765624-24 24-24 13.230468 0 24 10.769531 24 24 0 4.425781-3.578126 8-8 8zm0 0"/><path d="m384.429688 511.855469c-13.234376 0-24-10.765625-24-24 0-4.421875 3.574218-8 8-8 4.421874 0 8 3.578125 8 8 0 4.417969 3.582031 8 8 8 4.414062 0 8-3.582031 8-8 0-4.421875 3.574218-8 8-8 4.421874 0 8 3.578125 8 8 0 13.242187-10.769532 24-24 24zm0 0"/><path d="m368.429688 495.855469c-4.425782 0-8-3.574219-8-8v-23.953125c0-4.421875 3.574218-8 8-8 4.421874 0 8 3.578125 8 8v23.953125c0 4.425781-3.578126 8-8 8zm0 0"/><path d="m400.429688 495.855469c-4.425782 0-8-3.574219-8-8v-23.953125c0-4.421875 3.574218-8 8-8 4.421874 0 8 3.578125 8 8v23.953125c0 4.425781-3.578126 8-8 8zm0 0"/></svg>