<?xml version="1.0" encoding="iso-8859-1"?>
<!-- Generator: Adobe Illustrator 19.0.0, SVG Export Plug-In . SVG Version: 6.00 Build 0)  -->
<svg version="1.1" id="Capa_1" xmlns="http://www.w3.org/2000/svg" xmlns:xlink="http://www.w3.org/1999/xlink" x="0px" y="0px"
	 viewBox="0 0 512 512" style="enable-background:new 0 0 512 512;" xml:space="preserve">
<g>
	<path style="fill:#5AB462;" d="M392.533,117.077c0.001-3.825-1.259-7.544-3.584-10.581c-0.925-1.251-2.016-2.371-3.243-3.328
		L266.24,12.032c-6.03-4.664-14.45-4.664-20.48,0l-119.467,91.136c-1.227,0.957-2.318,2.077-3.243,3.328
		c-2.325,3.037-3.585,6.756-3.584,10.581v277.845c-0.001,3.825,1.259,7.544,3.584,10.581c0.925,1.251,2.016,2.371,3.243,3.328
		l119.467,91.136c6.03,4.665,14.45,4.665,20.48,0l119.467-91.136c1.227-0.957,2.318-2.077,3.243-3.328
		c2.325-3.037,3.585-6.756,3.584-10.581V117.077z"/>
	<g>
		<path style="fill:none;stroke:#000000;stroke-width:2;stroke-linecap:round;stroke-linejoin:round;" d="M256,126.933l42.667,35.2"
			/>
		<path style="fill:none;stroke:#000000;stroke-width:2;stroke-linecap:round;stroke-linejoin:round;" d="M213.333,144
			l85.333,69.333"/>
	</g>
	<g>
		<path style="fill:#388841;" d="M256,8.533v60.075l-85.333,65.109l-47.616-27.221c0.925-1.251,2.016-2.371,3.243-3.328
			L245.76,12.032C248.704,9.787,252.298,8.559,256,8.533z"/>
		<path style="fill:#96C65C;" d="M170.667,133.717v244.565l-47.616,27.221c-2.325-3.037-3.585-6.756-3.584-10.581V117.077
			c-0.001-3.825,1.259-7.544,3.584-10.581L170.667,133.717z"/>
		<path style="fill:#388841;" d="M388.949,405.504c-0.925,1.251-2.016,2.371-3.243,3.328L266.24,499.968
			c-2.944,2.246-6.538,3.474-10.24,3.499v-60.075l85.333-65.109L388.949,405.504z"/>
		<path style="fill:#96C65C;" d="M392.533,117.077v277.845c0.001,3.825-1.259,7.544-3.584,10.581l-47.616-27.221V133.717
			l47.616-27.221C391.275,109.533,392.534,113.252,392.533,117.077z"/>
		<polygon style="fill:#007B6F;" points="341.333,133.717 341.333,378.283 256,443.392 170.667,378.283 170.667,133.717 256,68.608 
					"/>
		<polygon style="fill:#00A095;" points="196.267,368.06 196.267,143.94 256,102.4 315.733,143.94 315.733,368.06 256,409.6 		"/>
		<g>
			<path style="fill:#FFFFFF;" d="M298.658,170.667c-1.98,0.002-3.899-0.688-5.425-1.95l-42.667-35.2
				c-3.636-3.001-4.151-8.381-1.15-12.017c3.001-3.636,8.381-4.151,12.017-1.15l42.667,35.2c2.778,2.293,3.817,6.084,2.597,9.473
				S302.26,170.67,298.658,170.667z"/>
			<path style="fill:#FFFFFF;" d="M298.658,221.867c-1.959,0.002-3.858-0.674-5.375-1.912l-85.333-69.333
				c-2.383-1.918-3.558-4.964-3.078-7.986c0.479-3.021,2.539-5.555,5.399-6.64c2.86-1.086,6.082-0.558,8.446,1.384l85.333,69.333
				c2.803,2.279,3.867,6.077,2.656,9.481C305.495,219.598,302.271,221.87,298.658,221.867z"/>
		</g>
		<g>
			<path d="M115.642,409.737c0.175,0.256,0.363,0.503,0.566,0.738c1.389,1.93,3.041,3.657,4.909,5.129l119.458,91.171
				c4.377,3.332,9.719,5.152,15.22,5.184c0.072,0.002,0.132,0.041,0.205,0.041c0.072,0,0.133-0.04,0.205-0.041
				c5.499-0.031,10.838-1.85,15.211-5.184L390.891,415.6c1.879-1.482,3.539-3.222,4.931-5.168c0.191-0.223,0.37-0.456,0.535-0.698
				c0.051-0.09,0.045-0.191,0.093-0.282c2.95-4.273,4.558-9.33,4.616-14.523V117.071c-0.058-5.188-1.663-10.241-4.61-14.512
				c-0.05-0.095-0.044-0.202-0.099-0.296c-0.091-0.159-0.247-0.245-0.346-0.396c-1.43-2.066-3.159-3.91-5.129-5.47L271.425,5.225
				c-4.377-3.332-9.718-5.151-15.219-5.183C256.133,0.04,256.073,0,256,0c-0.073,0-0.132,0.04-0.204,0.041
				c-5.499,0.03-10.84,1.85-15.213,5.184L121.108,96.4c-1.969,1.561-3.697,3.405-5.126,5.472c-0.097,0.148-0.252,0.233-0.341,0.39
				c-0.053,0.093-0.048,0.197-0.097,0.291c-2.948,4.272-4.553,9.327-4.611,14.517v277.858c0.058,5.188,1.663,10.241,4.61,14.512
				C115.593,409.536,115.587,409.643,115.642,409.737z M162.133,138.667v234.667L128,392.846V119.154L162.133,138.667z
				 M137.824,406.887l32.169-18.39l77.474,59.123v42.942L137.824,406.887z M256,79.333l76.8,58.608v236.117L256,432.667
				l-76.8-58.608V137.941L256,79.333z M264.533,490.557V447.62l77.478-59.126l32.17,18.391L264.533,490.557z M384,119.154v273.687
				l-34.133-19.512V138.667L384,119.154z M374.176,105.113l-32.169,18.39L264.533,64.38V21.438L374.176,105.113z M247.467,21.438
				V64.38l-77.474,59.123l-32.17-18.39L247.467,21.438z"/>
			<path d="M293.233,168.717c2.352,1.941,5.561,2.48,8.418,1.414c2.857-1.066,4.928-3.576,5.433-6.583
				c0.505-3.007-0.633-6.056-2.985-7.997l-42.667-35.2c-3.636-3.001-9.016-2.486-12.017,1.15c-3.001,3.636-2.486,9.016,1.15,12.017
				L293.233,168.717z"/>
			<path d="M293.283,219.954c2.364,1.942,5.586,2.47,8.446,1.384s4.92-3.619,5.399-6.64c0.479-3.021-0.695-6.068-3.078-7.986
				l-85.333-69.333c-2.364-1.942-5.586-2.47-8.446-1.384c-2.86,1.086-4.92,3.619-5.399,6.64c-0.479,3.021,0.695,6.068,3.078,7.986
				L293.283,219.954z"/>
		</g>
	</g>
</g>
<g>
</g>
<g>
</g>
<g>
</g>
<g>
</g>
<g>
</g>
<g>
</g>
<g>
</g>
<g>
</g>
<g>
</g>
<g>
</g>
<g>
</g>
<g>
</g>
<g>
</g>
<g>
</g>
<g>
</g>
</svg>
