<?xml version="1.0" encoding="iso-8859-1"?>
<!-- Generator: Adobe Illustrator 19.0.0, SVG Export Plug-In . SVG Version: 6.00 Build 0)  -->
<svg version="1.1" id="Capa_1" xmlns="http://www.w3.org/2000/svg" xmlns:xlink="http://www.w3.org/1999/xlink" x="0px" y="0px"
	 viewBox="0 0 512.001 512.001" style="enable-background:new 0 0 512.001 512.001;" xml:space="preserve">
<g transform="translate(-1)">
	<g>
		<path style="fill:#5496CE;" d="M402.09,379.136c0.027,49.33-25.055,95.282-66.56,121.941c-2.468,1.585-5.345,2.415-8.277,2.389
			H186.879c-2.986,0.026-5.918-0.803-8.448-2.389c-44.314-28.542-69.66-78.874-66.207-131.471s35.163-99.183,82.829-121.686
			c11.811-5.648,19.321-17.584,19.304-30.675V128h85.333v89.281c-0.089,13.015,7.33,24.916,19.054,30.567
			C369.623,271.758,402.102,322.918,402.09,379.136z"/>
		<g>
			<path style="fill:#336A93;" d="M205.823,76.8h102.4c4.713,0,8.533,3.821,8.533,8.533v34.133c0,4.713-3.821,8.533-8.533,8.533
				h-102.4c-4.713,0-8.533-3.82-8.533-8.533V85.333C197.29,80.621,201.11,76.8,205.823,76.8z"/>
			<path style="fill:#336A93;" d="M281.868,281.601c19.574-0.143,38.441,7.309,52.633,20.79
				c23.481,22.41,35.645,54.188,33.131,86.549s-19.44,61.879-46.1,80.394H192.427c-26.91-18.708-43.878-48.617-46.133-81.314
				c-2.254-32.697,10.45-64.651,34.538-86.875c13.996-12.75,32.298-19.732,51.23-19.542L281.868,281.601z"/>
		</g>
		<path style="fill:#D69564;" d="M231.423,8.533h51.2c9.426,0,17.067,7.641,17.067,17.067v51.2h-85.333V25.6
			C214.357,16.174,221.998,8.533,231.423,8.533z"/>
	</g>
	<g>
		
			<circle style="fill:none;stroke:#000000;stroke-width:2;stroke-linecap:round;stroke-linejoin:round;" cx="282.623" cy="349.867" r="34.133"/>
		
			<circle style="fill:none;stroke:#000000;stroke-width:2;stroke-linecap:round;stroke-linejoin:round;" cx="239.957" cy="426.667" r="17.067"/>
	</g>
	<g>
		<path style="fill:#DD5919;" d="M231.423,8.533h51.2c9.426,0,17.067,7.641,17.067,17.067v68.267h-85.333V25.6
			C214.357,16.174,221.998,8.533,231.423,8.533z"/>
		<path style="fill:#FF6E2C;" d="M228.636,8.533h31.175c7.886,0,14.279,6.393,14.279,14.279v71.054h-59.733V22.812
			C214.357,14.926,220.75,8.533,228.636,8.533z"/>
		<path style="fill:#7F34A5;" d="M402.09,379.136c0.027,49.33-25.055,95.282-66.56,121.941c-2.468,1.585-5.345,2.415-8.277,2.389
			H186.879c-2.986,0.026-5.918-0.803-8.448-2.389c-44.317-28.548-69.663-78.887-66.205-131.49s35.173-99.191,82.845-121.694
			c11.784-5.654,19.282-17.564,19.286-30.635v-97.792h85.333v97.792c-0.108,13.009,7.306,24.91,19.029,30.549
			C369.619,271.72,402.109,322.9,402.09,379.136L402.09,379.136z"/>
		<path style="fill:#AA44B9;" d="M359.423,379.136c0.027,49.33-25.055,95.282-66.56,121.941c-2.468,1.585-5.345,2.415-8.277,2.389
			h-97.707c-2.986,0.026-5.918-0.803-8.448-2.389c-44.317-28.548-69.663-78.887-66.205-131.49s35.173-99.191,82.845-121.694
			c11.784-5.654,19.282-17.564,19.286-30.635v-97.792h42.667v97.792c-0.109,13.033,7.346,24.948,19.115,30.549
			C326.992,271.759,359.44,322.924,359.423,379.136L359.423,379.136z"/>
		<path style="fill:#B82B6A;" d="M205.823,76.8h102.4c4.713,0,8.533,3.821,8.533,8.533v34.133c0,4.713-3.821,8.533-8.533,8.533
			h-102.4c-4.713,0-8.533-3.82-8.533-8.533V85.333C197.29,80.621,201.11,76.8,205.823,76.8z"/>
		<path style="fill:#EB3A76;" d="M282.623,85.333v34.133c0,4.693-2.743,8.533-6.095,8.533h-73.143c-3.352,0-6.095-3.84-6.095-8.533
			V85.333c0-4.693,2.743-8.533,6.095-8.533h73.143C279.88,76.8,282.623,80.64,282.623,85.333z"/>
		<path style="fill:#AA44B9;" d="M281.868,281.601c19.574-0.143,38.441,7.309,52.633,20.79
			c23.481,22.41,35.645,54.188,33.131,86.549s-19.44,61.879-46.1,80.394H192.427c-26.91-18.708-43.878-48.617-46.133-81.314
			c-2.254-32.697,10.45-64.651,34.538-86.875c13.996-12.75,32.298-19.732,51.23-19.542L281.868,281.601z"/>
		<g>
			<circle style="fill:#EB3A76;" cx="282.623" cy="349.867" r="34.133"/>
			<circle style="fill:#EB3A76;" cx="239.957" cy="426.667" r="17.067"/>
		</g>
		<path style="fill:#36B6D6;" d="M291.157,435.2c-0.573-0.02-1.143-0.077-1.708-0.171c-0.535-0.095-1.053-0.268-1.537-0.513
			c-0.543-0.188-1.058-0.448-1.533-0.771c-0.429-0.338-0.854-0.679-1.279-1.021c-1.559-1.636-2.443-3.799-2.475-6.059
			c0.012-1.116,0.243-2.219,0.679-3.246c0.413-1.044,1.023-1.999,1.796-2.813c2.734-2.765,6.986-3.342,10.358-1.406
			c3.372,1.936,5.018,5.899,4.008,9.654S295.045,435.215,291.157,435.2L291.157,435.2z"/>
		<g>
			<path d="M340.432,296.254c-15.754-15.064-36.766-23.384-58.562-23.188l-49.804,0.004c-21.1-0.229-41.497,7.576-57.054,21.833
				c-21.233,19.605-34.429,46.396-37.029,75.179c-3.477,41.683,15.364,82.093,49.529,106.225c1.439,1.013,3.156,1.558,4.917,1.558
				h129.104c1.759,0.001,3.474-0.542,4.912-1.554c28.74-19.98,46.985-51.814,49.696-86.712
				C378.851,354.703,365.741,320.433,340.432,296.254L340.432,296.254z M318.769,460.8H195.194
				c-27.898-20.823-43.096-54.553-40.212-89.246c2.242-24.574,13.529-47.44,31.671-64.166c12.399-11.306,28.634-17.473,45.413-17.25
				l49.804-0.004c17.37-0.186,34.127,6.414,46.704,18.396c21.315,20.319,32.537,49.036,30.644,78.424S342.514,443.382,318.769,460.8
				L318.769,460.8z"/>
			<path d="M410.623,379.138c-0.173-59.468-34.501-113.544-88.242-139.008c-8.727-4.254-14.234-13.142-14.158-22.85v-80.746
				c9.422-0.009,17.057-7.645,17.067-17.067V85.333c-0.009-9.422-7.645-17.057-17.067-17.067V25.6
				c-0.015-14.132-11.468-25.585-25.6-25.6h-51.2c-14.132,0.015-25.585,11.468-25.6,25.6v42.667
				c-9.422,0.009-17.057,7.645-17.067,17.067v34.133c0.009,9.422,7.645,17.057,17.067,17.067v80.713
				c-0.012,9.792-5.622,18.716-14.442,22.971c-50.469,23.838-84.035,73.176-87.676,128.872
				c-3.641,55.696,23.216,108.985,70.151,139.19c3.9,2.453,8.418,3.743,13.025,3.721h140.371c4.575,0.033,9.061-1.272,12.904-3.754
				C384.142,480.057,410.709,431.38,410.623,379.138z M222.89,25.6c0.006-4.71,3.823-8.527,8.533-8.533h51.2
				c4.71,0.006,8.527,3.823,8.533,8.533v42.667H222.89V25.6z M205.823,85.333l102.4,0.025v34.108h-102.4V85.333z M330.848,493.942
				c-1.078,0.67-2.327,1.014-3.596,0.992H186.882c-1.344,0.029-2.668-0.327-3.817-1.025
				c-41.716-26.863-65.576-74.242-62.323-123.752c3.254-49.51,33.109-93.359,77.982-114.532
				c14.747-7.103,24.134-22.011,24.166-38.379v-80.713h68.267v80.746c-0.06,16.312,9.257,31.207,23.95,38.292
				c44.95,21.12,74.881,64.988,78.153,114.544C396.533,419.671,372.63,467.094,330.848,493.942L330.848,493.942z"/>
			<path d="M282.623,307.2c-23.564,0-42.667,19.103-42.667,42.667c0,23.564,19.103,42.667,42.667,42.667
				s42.667-19.103,42.667-42.667C325.262,326.314,306.176,307.228,282.623,307.2z M282.623,375.467c-14.138,0-25.6-11.462-25.6-25.6
				c0-14.138,11.462-25.6,25.6-25.6s25.6,11.462,25.6,25.6C308.208,363.999,296.755,375.451,282.623,375.467z"/>
			<path d="M239.957,401.067c-14.139,0-25.6,11.462-25.6,25.6s11.462,25.6,25.6,25.6c14.138,0,25.6-11.462,25.6-25.6
				C265.541,412.535,254.089,401.082,239.957,401.067z M239.957,435.2c-4.713,0-8.533-3.82-8.533-8.533s3.821-8.533,8.533-8.533
				c4.713,0,8.533,3.82,8.533,8.533C248.484,431.377,244.667,435.194,239.957,435.2L239.957,435.2z"/>
			<path d="M285.098,420.608c-0.773,0.814-1.383,1.769-1.796,2.813c-0.436,1.027-0.667,2.13-0.679,3.246
				c0.032,2.259,0.916,4.423,2.475,6.059c0.425,0.341,0.85,0.683,1.279,1.021c0.475,0.323,0.991,0.582,1.533,0.771
				c0.485,0.245,1.003,0.418,1.537,0.512c0.565,0.094,1.136,0.151,1.709,0.171c3.873,0,7.262-2.603,8.263-6.345
				c1-3.742-0.639-7.688-3.995-9.621C292.068,417.302,287.832,417.865,285.098,420.608L285.098,420.608z"/>
		</g>
	</g>
</g>
<g>
</g>
<g>
</g>
<g>
</g>
<g>
</g>
<g>
</g>
<g>
</g>
<g>
</g>
<g>
</g>
<g>
</g>
<g>
</g>
<g>
</g>
<g>
</g>
<g>
</g>
<g>
</g>
<g>
</g>
</svg>
