<?xml version="1.0" encoding="iso-8859-1"?>
<!-- Generator: Adobe Illustrator 19.0.0, SVG Export Plug-In . SVG Version: 6.00 Build 0)  -->
<svg version="1.1" id="Capa_1" xmlns="http://www.w3.org/2000/svg" xmlns:xlink="http://www.w3.org/1999/xlink" x="0px" y="0px"
	 viewBox="0 0 512 512" style="enable-background:new 0 0 512 512;" xml:space="preserve">
<g>
	<g>
		<path style="fill:#354A9F;" d="M503.467,93.867V230.4c-0.014,4.707-3.826,8.519-8.533,8.533H486.4v230.4
			c-0.028,9.414-7.652,17.039-17.067,17.067H42.667c-9.414-0.028-17.039-7.652-17.067-17.067v-230.4h-8.533
			c-4.707-0.014-8.519-3.826-8.533-8.533V93.867C8.528,75.76,15.719,58.393,28.523,45.589S58.693,25.595,76.8,25.6h358.4
			c18.107-0.005,35.474,7.186,48.277,19.989C496.281,58.393,503.472,75.76,503.467,93.867z"/>
		<path style="fill:#5068BD;" d="M460.8,93.867V230.4c-0.014,4.707-3.826,8.519-8.533,8.533h-8.533v230.4
			c-0.028,9.414-7.653,17.039-17.067,17.067h-384c-9.414-0.028-17.039-7.652-17.067-17.067v-230.4h-8.533
			c-4.707-0.014-8.519-3.826-8.533-8.533V93.867C8.528,75.76,15.719,58.393,28.523,45.589S58.693,25.595,76.8,25.6h315.733
			c18.107-0.005,35.474,7.186,48.277,19.989S460.805,75.76,460.8,93.867z"/>
	</g>
	
		<circle style="fill:none;stroke:#000000;stroke-width:2;stroke-linecap:round;stroke-linejoin:round;" cx="256" cy="247.467" r="25.6"/>
	<path id="SVGCleanerId_0" style="fill:#936642;" d="M332.8,93.867H196.267c-4.713,0-8.533-3.82-8.533-8.533
		c0-4.713,3.821-8.533,8.533-8.533H332.8c4.713,0,8.533,3.821,8.533,8.533C341.333,90.046,337.513,93.867,332.8,93.867z"/>
	<path id="SVGCleanerId_1" style="fill:#936642;" d="M230.4,128h-76.8c-4.713,0-8.533-3.821-8.533-8.533
		c0-4.713,3.82-8.533,8.533-8.533h76.8c4.713,0,8.533,3.821,8.533,8.533C238.933,124.179,235.113,128,230.4,128z"/>
	<path id="SVGCleanerId_2" style="fill:#936642;" d="M349.867,128h-85.333c-4.713,0-8.533-3.821-8.533-8.533
		c0-4.713,3.821-8.533,8.533-8.533h85.333c4.713,0,8.533,3.821,8.533,8.533C358.4,124.179,354.579,128,349.867,128z"/>
	<g>
		<g>
			<path style="fill:#6D5A61;" d="M332.8,366.933H196.267c-4.713,0-8.533-3.82-8.533-8.533s3.821-8.533,8.533-8.533H332.8
				c4.713,0,8.533,3.82,8.533,8.533S337.513,366.933,332.8,366.933z"/>
			<path style="fill:#6D5A61;" d="M230.4,401.067h-76.8c-4.713,0-8.533-3.82-8.533-8.533S148.887,384,153.6,384h76.8
				c4.713,0,8.533,3.82,8.533,8.533S235.113,401.067,230.4,401.067z"/>
			<path style="fill:#6D5A61;" d="M349.867,401.067h-85.333c-4.713,0-8.533-3.82-8.533-8.533s3.821-8.533,8.533-8.533h85.333
				c4.713,0,8.533,3.82,8.533,8.533S354.579,401.067,349.867,401.067z"/>
		</g>
		<path style="fill:#0086C3;" d="M128,25.6c-68.267,0-68.267,59.733-68.267,59.733v153.6H17.067
			c-4.707-0.014-8.519-3.826-8.533-8.533V93.867C8.528,75.76,15.719,58.393,28.523,45.589S58.693,25.595,76.8,25.6H128z"/>
		<path style="fill:#FFBA00;" d="M196.267,25.6C128,25.6,128,85.333,128,85.333v153.6H59.733v-153.6c0,0,0-59.733,68.267-59.733
			H196.267z"/>
		<path style="fill:#0086C3;" d="M384,85.333v153.6h-59.733V204.8c-0.028-9.414-7.652-17.039-17.067-17.067H204.8
			c-9.414,0.028-17.039,7.652-17.067,17.067v34.133H128v-153.6c0,0,0-59.733,68.267-59.733h119.467C384,25.6,384,85.333,384,85.333z
			"/>
		<path style="fill:#FFBA00;" d="M452.267,85.333v153.6H384v-153.6c0,0,0-59.733-68.267-59.733H384
			C452.267,25.6,452.267,85.333,452.267,85.333z"/>
		<path style="fill:#147CC7;" d="M503.467,93.867V230.4c-0.014,4.707-3.826,8.519-8.533,8.533h-42.667v-153.6
			c0,0,0-59.733-68.267-59.733h51.2c18.107-0.005,35.474,7.186,48.277,19.989C496.281,58.393,503.472,75.76,503.467,93.867z"/>
		<circle style="fill:#728B98;" cx="256" cy="247.467" r="25.6"/>
		<rect x="384" y="238.933" style="fill:#FFBA00;" width="68.267" height="247.467"/>
		<path style="fill:#F9D842;" d="M307.2,187.733H204.8c-9.414,0.028-17.039,7.652-17.067,17.067v68.267
			c-0.002,9.053,3.593,17.737,9.995,24.139c6.402,6.402,15.085,9.997,24.139,9.995h68.267c9.053,0.002,17.737-3.593,24.139-9.995
			c6.402-6.402,9.997-15.085,9.995-24.139V204.8C324.239,195.386,316.614,187.761,307.2,187.733L307.2,187.733z M256,273.067
			c-14.138,0-25.6-11.462-25.6-25.6s11.462-25.6,25.6-25.6c14.139,0,25.6,11.462,25.6,25.6c0.009,6.792-2.685,13.309-7.488,18.112
			C269.309,270.382,262.792,273.076,256,273.067L256,273.067z"/>
		<rect x="59.733" y="238.933" style="fill:#FFBA00;" width="68.267" height="247.467"/>
		<g>
			<path style="fill:#FFC500;" d="M162.133,25.6c-68.267,0-68.267,59.733-68.267,59.733v153.6H59.733v-153.6
				c0,0,0-59.733,68.267-59.733H162.133z"/>
			<path style="fill:#FFC500;" d="M418.133,85.333v153.6H384v-153.6c0,0,0-59.733-68.267-59.733h34.133
				C418.133,25.6,418.133,85.333,418.133,85.333z"/>
			<rect x="384" y="238.933" style="fill:#FFC500;" width="34.133" height="247.467"/>
			<rect x="59.733" y="238.933" style="fill:#FFC500;" width="34.133" height="247.467"/>
		</g>
	</g>
	<g>
		<path id="SVGCleanerId_0_1_" style="fill:#936642;" d="M332.8,93.867H196.267c-4.713,0-8.533-3.82-8.533-8.533
			c0-4.713,3.821-8.533,8.533-8.533H332.8c4.713,0,8.533,3.821,8.533,8.533C341.333,90.046,337.513,93.867,332.8,93.867z"/>
	</g>
	<g>
		<path id="SVGCleanerId_1_1_" style="fill:#936642;" d="M230.4,128h-76.8c-4.713,0-8.533-3.821-8.533-8.533
			c0-4.713,3.82-8.533,8.533-8.533h76.8c4.713,0,8.533,3.821,8.533,8.533C238.933,124.179,235.113,128,230.4,128z"/>
	</g>
	<g>
		<path id="SVGCleanerId_2_1_" style="fill:#936642;" d="M349.867,128h-85.333c-4.713,0-8.533-3.821-8.533-8.533
			c0-4.713,3.821-8.533,8.533-8.533h85.333c4.713,0,8.533,3.821,8.533,8.533C358.4,124.179,354.579,128,349.867,128z"/>
	</g>
	<g>
		<g>
			<path style="fill:#6E4D32;" d="M332.8,366.933H196.267c-4.713,0-8.533-3.82-8.533-8.533s3.821-8.533,8.533-8.533H332.8
				c4.713,0,8.533,3.82,8.533,8.533S337.513,366.933,332.8,366.933z"/>
			<path style="fill:#6E4D32;" d="M230.4,401.067h-76.8c-4.713,0-8.533-3.82-8.533-8.533S148.887,384,153.6,384h76.8
				c4.713,0,8.533,3.82,8.533,8.533S235.113,401.067,230.4,401.067z"/>
			<path style="fill:#6E4D32;" d="M349.867,401.067h-85.333c-4.713,0-8.533-3.82-8.533-8.533s3.821-8.533,8.533-8.533h85.333
				c4.713,0,8.533,3.82,8.533,8.533S354.579,401.067,349.867,401.067z"/>
		</g>
		<g>
			<path d="M435.2,17.067H76.8C34.405,17.116,0.049,51.472,0,93.867V230.4c0.009,9.422,7.645,17.057,17.067,17.067v221.867
				c0.015,14.132,11.468,25.585,25.6,25.6h426.667c14.132-0.015,25.585-11.468,25.6-25.6V247.467
				c9.422-0.009,17.057-7.645,17.067-17.067V93.867C511.951,51.472,477.595,17.116,435.2,17.067z M384,34.133
				c57.646,0,59.692,45.992,59.733,51.2V230.4h-51.2V85.333c-0.93-19.535-9.499-37.923-23.859-51.2H384z M196.267,34.133h119.467
				c57.646,0,59.692,45.992,59.733,51.2V230.4H332.8v-25.6c-0.015-14.132-11.468-25.585-25.6-25.6H204.8
				c-14.132,0.015-25.585,11.468-25.6,25.6v25.6h-42.667V85.333C136.533,83.242,137.213,34.133,196.267,34.133z M196.267,238.933
				V204.8c0.006-4.71,3.823-8.527,8.533-8.533h102.4c4.71,0.006,8.527,3.823,8.533,8.533v68.267
				c-0.015,14.132-11.468,25.585-25.6,25.6h-68.267c-14.132-0.015-25.585-11.468-25.6-25.6V238.933z M136.533,247.467H179.2v25.6
				c0.028,23.553,19.114,42.639,42.667,42.667h68.267c23.553-0.028,42.639-19.114,42.667-42.667v-25.6h42.667v230.4H136.533V247.467
				z M119.467,85.333V230.4h-51.2V85.333c0-2.092,0.679-51.2,59.733-51.2h15.326C128.966,47.41,120.397,65.798,119.467,85.333
				L119.467,85.333z M17.067,93.867c0.05-32.241,25.665-58.631,57.891-59.64C60.661,47.501,52.132,65.847,51.2,85.333V230.4H17.067
				V93.867z M34.133,469.333V247.467H51.2v230.4h-8.533C37.956,477.861,34.139,474.044,34.133,469.333L34.133,469.333z
				 M68.267,477.867v-230.4h51.2v230.4H68.267z M392.533,477.867v-230.4h51.2v230.4H392.533z M477.867,469.333
				c-0.006,4.71-3.823,8.527-8.533,8.533H460.8v-230.4h17.067V469.333z M494.933,230.4H460.8V85.333
				c-0.932-19.487-9.461-37.833-23.757-51.107c32.225,1.009,57.841,27.399,57.891,59.64V230.4z"/>
			<path d="M256,281.6c18.851,0,34.133-15.282,34.133-34.133S274.851,213.333,256,213.333c-18.851,0-34.133,15.282-34.133,34.133
				C221.888,266.309,237.158,281.578,256,281.6z M256,230.4c9.426,0,17.067,7.641,17.067,17.067s-7.641,17.067-17.067,17.067
				c-9.426,0-17.067-7.641-17.067-17.067C238.943,238.045,246.578,230.409,256,230.4z"/>
			<path d="M196.267,93.867H332.8c4.713,0,8.533-3.82,8.533-8.533c0-4.713-3.82-8.533-8.533-8.533H196.267
				c-4.713,0-8.533,3.821-8.533,8.533C187.733,90.046,191.554,93.867,196.267,93.867z"/>
			<path d="M153.6,128h76.8c4.713,0,8.533-3.821,8.533-8.533c0-4.713-3.821-8.533-8.533-8.533h-76.8
				c-4.713,0-8.533,3.821-8.533,8.533C145.067,124.179,148.887,128,153.6,128z"/>
			<path d="M256,119.467c0,4.713,3.821,8.533,8.533,8.533h85.333c4.713,0,8.533-3.821,8.533-8.533c0-4.713-3.821-8.533-8.533-8.533
				h-85.333C259.821,110.933,256,114.754,256,119.467z"/>
			<path d="M196.267,366.933H332.8c4.713,0,8.533-3.82,8.533-8.533s-3.82-8.533-8.533-8.533H196.267
				c-4.713,0-8.533,3.82-8.533,8.533S191.554,366.933,196.267,366.933z"/>
			<path d="M230.4,384h-76.8c-4.713,0-8.533,3.82-8.533,8.533s3.82,8.533,8.533,8.533h76.8c4.713,0,8.533-3.82,8.533-8.533
				S235.113,384,230.4,384z"/>
			<path d="M349.867,384h-85.333c-4.713,0-8.533,3.82-8.533,8.533s3.821,8.533,8.533,8.533h85.333c4.713,0,8.533-3.82,8.533-8.533
				S354.579,384,349.867,384z"/>
		</g>
	</g>
</g>
<g>
</g>
<g>
</g>
<g>
</g>
<g>
</g>
<g>
</g>
<g>
</g>
<g>
</g>
<g>
</g>
<g>
</g>
<g>
</g>
<g>
</g>
<g>
</g>
<g>
</g>
<g>
</g>
<g>
</g>
</svg>
